<svg width="25" height="24" viewBox="0 0 25 24" fill="none" xmlns="http://www.w3.org/2000/svg">
<path d="M24.2602 12.2667C24.2602 11.28 24.1802 10.56 24.0069 9.81335H12.7402V14.2666H19.3535C19.2202 15.3733 18.5002 17.04 16.9002 18.1599L16.8778 18.309L20.4401 21.0687L20.6869 21.0934C22.9535 19 24.2602 15.92 24.2602 12.2667Z" fill="#4285F4"/>
<path d="M12.7405 23.9999C15.9805 23.9999 18.7005 22.9332 20.6872 21.0933L16.9005 18.1599C15.8872 18.8666 14.5272 19.3599 12.7405 19.3599C9.56722 19.3599 6.87391 17.2666 5.91382 14.3733L5.77309 14.3852L2.06895 17.2519L2.02051 17.3866C3.99382 21.3065 8.04716 23.9999 12.7405 23.9999Z" fill="#34A853"/>
<path d="M5.91352 14.3734C5.66019 13.6267 5.51358 12.8266 5.51358 12C5.51358 11.1733 5.66019 10.3733 5.90019 9.62667L5.89348 9.46765L2.14292 6.55493L2.0202 6.6133C1.20691 8.23999 0.740234 10.0667 0.740234 12C0.740234 13.9333 1.20691 15.76 2.0202 17.3866L5.91352 14.3734Z" fill="#FBBC05"/>
<path d="M12.7405 4.63997C14.9938 4.63997 16.5138 5.6133 17.3805 6.42668L20.7672 3.12C18.6872 1.18667 15.9805 0 12.7405 0C8.04716 0 3.99382 2.69331 2.02051 6.61328L5.90049 9.62665C6.87391 6.73333 9.56722 4.63997 12.7405 4.63997Z" fill="#EB4335"/>
</svg>
