<svg width="450" height="507" viewBox="0 0 450 507" fill="none" xmlns="http://www.w3.org/2000/svg">
<path d="M146.913 500.367C213 502.585 194.66 501.969 197.973 502.081L211.155 502.522C212.43 502.565 213.406 501.406 213.164 500.152L211.964 494.087C211.423 491.345 209.566 489.04 206.997 487.924L205.999 487.484L197.839 483.929L190.61 473.605L146.53 476.41C146.373 478.648 147.095 468.314 145.006 498.244C144.928 499.365 145.797 500.329 146.911 500.365L146.913 500.367Z" fill="#5F71FA"/>
<path d="M211.145 502.883L146.9 500.727C145.59 500.684 144.553 499.553 144.646 498.219L146.171 476.385C146.184 476.205 146.327 476.063 146.508 476.051L190.588 473.247C190.71 473.224 190.834 473.298 190.906 473.401L198.077 483.639L207.143 487.596C209.82 488.758 211.755 491.159 212.318 494.019L213.518 500.083C213.786 501.468 212.794 502.884 211.145 502.884V502.883ZM146.868 476.749L145.366 498.269C145.303 499.183 146.009 499.974 146.923 500.005L211.167 502.161C212.158 502.218 213.014 501.276 212.809 500.221L211.609 494.158C211.092 491.53 209.313 489.323 206.854 488.255L197.696 484.26C197.635 484.233 197.582 484.19 197.545 484.135L190.431 473.978L146.868 476.748V476.749Z" fill="#5F71FA"/>
<path d="M146.912 500.367L160.443 500.823C159.173 493.768 153.562 487.722 145.833 486.433L145.008 498.244C144.93 499.365 145.799 500.329 146.912 500.366V500.367Z" fill="#0A1244"/>
<path d="M160.443 501.183C139.541 500.481 149.894 500.828 146.901 500.728C145.591 500.685 144.554 499.554 144.647 498.22L145.474 486.408C145.491 486.196 145.682 486.045 145.892 486.077C153.544 487.353 159.463 493.336 160.798 500.758C160.838 500.978 160.669 501.182 160.443 501.182V501.183ZM146.166 486.858L145.367 498.27C145.304 499.184 146.01 499.975 146.924 500.006L160.003 500.447C158.616 493.755 153.28 488.209 146.165 486.858H146.166Z" fill="#0A1244"/>
<path d="M197.974 502.08L211.156 502.522C212.431 502.565 213.407 501.405 213.165 500.152L211.965 494.087C211.424 491.345 209.567 489.04 206.998 487.924L206 487.484C204.984 487.937 204.005 488.528 203.085 489.255C199.072 492.426 197.295 497.36 197.973 502.079L197.974 502.08Z" fill="#0A1244"/>
<path d="M211.145 502.883L197.96 502.441C197.786 502.434 197.641 502.305 197.616 502.131C196.898 497.139 198.907 492.098 202.862 488.974C203.796 488.235 204.802 487.624 205.852 487.155C205.943 487.113 206.05 487.113 206.145 487.155L207.142 487.595C209.819 488.757 211.754 491.159 212.317 494.019L213.517 500.083C213.785 501.468 212.793 502.884 211.144 502.884L211.145 502.883ZM198.29 501.731L211.168 502.162C212.159 502.219 213.015 501.277 212.81 500.222L211.61 494.159C211.093 491.531 209.314 489.323 206.855 488.256L206.002 487.881C205.059 488.315 204.154 488.874 203.311 489.54C199.635 492.444 197.731 497.091 198.291 501.731H198.29Z" fill="#0A1244"/>
<path d="M159.472 475.196L194.763 479.537L190.609 473.607L159.472 475.196Z" fill="#0A1244"/>
<path d="M194.719 479.896L159.427 475.553C159.242 475.529 159.106 475.369 159.11 475.183C159.118 474.995 159.266 474.845 159.453 474.835L190.59 473.246C190.719 473.231 190.833 473.297 190.904 473.399L195.057 479.33C195.235 479.583 195.029 479.933 194.718 479.894L194.719 479.896ZM163.631 475.343L194.003 479.08L190.428 473.976L163.631 475.343Z" fill="#0A1244"/>
<path d="M1.24325 470.295C56.3535 506.838 41.0593 496.696 43.8227 498.529L54.8163 505.818C55.8787 506.521 57.3182 506.047 57.7681 504.853L59.9261 499.06C60.9038 496.442 60.5315 493.505 58.9296 491.208L58.31 490.309L53.2261 483.004L52.4828 470.424L13.4783 449.698C12.172 451.522 18.2041 443.101 0.73203 467.491C0.0771062 468.405 0.31269 469.682 1.24207 470.296L1.24325 470.295Z" fill="#5F71FA"/>
<path d="M54.6172 506.118L1.04304 470.596C-0.0536052 469.872 -0.336306 468.365 0.438766 467.281L13.185 449.487C13.2899 449.34 13.4901 449.294 13.6468 449.379L52.6513 470.104C52.762 470.163 52.835 470.276 52.8421 470.401L53.5795 482.88L59.2253 491.003C60.8932 493.395 61.2819 496.454 60.2618 499.186L58.1039 504.978C57.5679 506.403 55.8588 506.942 54.6149 506.119L54.6172 506.118ZM13.5879 450.165L1.02537 467.7C0.488238 468.451 0.682595 469.493 1.44118 469.995L55.0142 505.516C55.8764 506.09 57.0591 505.708 57.4289 504.725L59.5869 498.934C60.5233 496.425 60.1664 493.613 58.6316 491.414L52.9293 483.209C52.8916 483.155 52.8692 483.091 52.8657 483.025L52.1342 470.647L13.5867 450.166L13.5879 450.165Z" fill="#5F71FA"/>
<path d="M1.24305 470.295L12.5252 477.779C15.1437 471.106 13.5346 463.015 7.62973 457.866L0.733007 467.491C0.0780827 468.405 0.313667 469.682 1.24305 470.297V470.295Z" fill="#0A1244"/>
<path d="M12.3252 478.079L1.04304 470.596C-0.0536052 469.872 -0.336306 468.365 0.438766 467.281L7.33549 457.656C7.44857 457.501 7.68533 457.441 7.86556 457.595C13.8529 462.817 15.5468 471.063 12.8599 477.912C12.7787 478.121 12.516 478.21 12.3252 478.079ZM7.68887 458.402L1.02537 467.7C0.488238 468.451 0.682595 469.493 1.44118 469.995L12.3464 477.229C14.6692 470.814 13.0496 463.295 7.68769 458.402H7.68887Z" fill="#0A1244"/>
<path d="M43.8213 498.529L54.8148 505.818C55.8773 506.521 57.3167 506.048 57.7667 504.853L59.9246 499.06C60.9023 496.442 60.5301 493.505 58.9281 491.208L58.3085 490.309C57.206 490.162 56.0622 490.154 54.8985 490.291C49.8181 490.887 45.7177 494.155 43.8213 498.529Z" fill="#0A1244"/>
<path d="M54.6172 506.118L43.6225 498.829C43.4776 498.732 43.4222 498.546 43.4917 498.385C45.4977 493.757 49.8537 490.519 54.8575 489.931C56.0413 489.791 57.2181 489.798 58.3571 489.951C58.4584 489.964 58.5491 490.02 58.6068 490.103L59.2264 491.002C60.8943 493.394 61.2831 496.454 60.263 499.185L58.105 504.977C57.5691 506.402 55.8599 506.941 54.616 506.118H54.6172ZM44.2751 498.397L55.0153 505.516C55.8776 506.09 57.0602 505.708 57.4301 504.725L59.588 498.934C60.5245 496.425 60.1676 493.614 58.6327 491.414L58.1038 490.646C57.0743 490.523 56.0119 490.523 54.9399 490.646C50.2895 491.192 46.2304 494.151 44.2739 498.396L44.2751 498.397Z" fill="#0A1244"/>
<path d="M25.1641 456.404L52.91 477.652L52.4836 470.423L25.1641 456.404Z" fill="#0A1244"/>
<path d="M52.691 477.938L24.9451 456.689C24.7967 456.575 24.7602 456.368 24.8591 456.21C24.9592 456.051 25.1618 456 25.3291 456.081L52.6486 470.101C52.7617 470.16 52.8359 470.274 52.843 470.401L53.2694 477.63C53.2882 477.938 52.9325 478.125 52.691 477.938ZM28.5649 458.554L52.5037 476.886L52.1351 470.649L28.5649 458.554Z" fill="#0A1244"/>
<path d="M242.462 88.2557C236.855 130.165 212.158 156.208 178.682 163.534C174.226 164.518 169.621 165.155 164.872 165.466C154.57 166.121 143.647 165.192 132.354 162.587L134.064 118.818C176.017 135.861 197.826 112.112 213.019 71.8425L242.464 88.2569L242.462 88.2557Z" fill="#EE7255"/>
<path d="M178.682 163.534C174.226 164.518 169.621 165.155 164.872 165.466L164.208 139.635L178.682 163.535V163.534Z" fill="#0A1244"/>
<path d="M367.299 13.5627V232.343C367.299 239.565 361.442 245.411 354.22 245.411H340.012C347.234 245.411 353.08 239.565 353.08 232.343V13.5627C353.08 6.34089 347.234 0.494873 340.012 0.494873H354.22C361.442 0.494873 367.299 6.34089 367.299 13.5627Z" fill="#FFC176"/>
<path d="M354.221 245.904H340.013V244.917C346.946 244.917 352.587 239.276 352.587 232.343V13.5626C352.587 6.62934 346.946 0.988276 340.013 0.988276V0H354.221C361.705 0 367.794 6.08396 367.794 13.5626V232.343C367.794 239.821 361.705 245.905 354.221 245.905V245.904ZM345.094 244.917H354.221C361.16 244.917 366.806 239.276 366.806 232.343V13.5626C366.806 6.62934 361.16 0.988276 354.221 0.988276H345.094C350.063 3.00252 353.575 7.88029 353.575 13.5626V232.343C353.575 238.025 350.063 242.903 345.094 244.917Z" fill="#FFC176"/>
<path d="M339.872 0.492432H207.332C200.111 0.492432 194.258 6.34575 194.258 13.5662V232.338C194.258 239.558 200.111 245.412 207.332 245.412H339.872C347.093 245.412 352.946 239.558 352.946 232.338V13.5662C352.946 6.34575 347.093 0.492432 339.872 0.492432Z" fill="white"/>
<path d="M339.874 245.772H207.332C199.925 245.772 193.897 239.745 193.897 232.338V13.5661C193.897 6.15938 199.925 0.131958 207.332 0.131958H339.874C347.282 0.131958 353.309 6.15938 353.309 13.5661V232.338C353.309 239.745 347.282 245.772 339.874 245.772ZM207.332 0.854024C200.322 0.854024 194.62 6.55634 194.62 13.5661V232.338C194.62 239.348 200.322 245.05 207.332 245.05H339.874C346.885 245.05 352.587 239.348 352.587 232.338V13.5661C352.587 6.55634 346.885 0.854024 339.874 0.854024H207.332Z" fill="#0A1244"/>
<path d="M301.168 0.857544L295.219 8.95811C293.573 11.1997 290.958 12.5249 288.175 12.5249H258.45C255.668 12.5249 253.052 11.2009 251.406 8.95811L245.457 0.857544H301.167H301.168Z" fill="#BFC6FD"/>
<path d="M194.26 209.404V232.338C194.26 239.559 200.113 245.412 207.334 245.412H339.876C347.096 245.412 352.949 239.559 352.949 232.338V209.404H194.261H194.26Z" fill="white"/>
<path d="M339.874 245.772H207.332C199.925 245.772 193.897 239.745 193.897 232.338V209.404C193.897 209.205 194.06 209.043 194.258 209.043H352.947C353.146 209.043 353.308 209.206 353.308 209.404V232.338C353.308 239.745 347.28 245.772 339.872 245.772H339.874ZM194.62 209.765V232.339C194.62 239.349 200.322 245.051 207.332 245.051H339.874C346.885 245.051 352.587 239.349 352.587 232.339V209.765H194.62Z" fill="#0A1244"/>
<path d="M287.256 172.575C287.256 183.012 278.798 191.479 268.352 191.479C257.906 191.479 249.447 183.012 249.447 172.575C249.447 162.137 257.914 153.67 268.352 153.67C278.789 153.67 287.256 162.128 287.256 172.575Z" fill="#23C965"/>
<path d="M268.089 177.195L262.234 170.963C262.097 170.819 262.104 170.59 262.249 170.455C262.395 170.319 262.625 170.325 262.758 170.47L268.37 176.441L285.911 160.268C286.056 160.134 286.285 160.143 286.42 160.289C286.556 160.435 286.545 160.664 286.399 160.798L268.595 177.213C268.451 177.347 268.224 177.341 268.088 177.195H268.089Z" fill="#0A1244"/>
<path d="M281.2 222.5H259.734C257.024 222.5 254.827 224.697 254.827 227.407V227.408C254.827 230.118 257.024 232.315 259.734 232.315H281.2C283.91 232.315 286.107 230.118 286.107 227.408V227.407C286.107 224.697 283.91 222.5 281.2 222.5Z" fill="#BFC6FD"/>
<path d="M50.0322 252.781C50.0322 252.781 92.7484 275.498 115.178 275.485C137.609 275.472 121.554 235.918 121.554 235.918C121.554 235.918 76.0207 230.825 50.0322 252.78V252.781Z" fill="#0A1244"/>
<path d="M200.155 473.019L146.297 475.898C146.297 475.898 137.146 448.392 125.542 411.232C122.149 400.381 118.553 388.705 114.903 376.649C98.1693 321.277 80.5241 257.921 78.1494 229.743L148.68 226.864L200.156 473.02L200.155 473.019Z" fill="white"/>
<path d="M146.297 476.259C146.143 476.259 146.004 476.16 145.955 476.012C145.863 475.737 136.67 448.079 125.197 411.338C121.655 400.009 118.074 388.372 114.557 376.753C99.1334 325.713 80.2336 258.781 77.7895 229.772C77.7718 229.571 77.9261 229.391 78.1334 229.382L148.664 226.503C148.839 226.461 148.996 226.618 149.031 226.789L200.506 472.946C200.551 473.16 200.396 473.366 200.173 473.379L146.315 476.258C146.308 476.258 146.302 476.258 146.296 476.258L146.297 476.259ZM78.541 230.086C81.1088 259.231 99.9002 325.755 115.249 376.545C118.765 388.163 122.344 399.796 125.886 411.124C136.762 445.954 145.589 472.619 146.553 475.524L199.717 472.682L148.391 227.235L78.5422 230.086H78.541Z" fill="#0A1244"/>
<path d="M133.78 366.523C133.78 366.523 130.449 390.972 125.541 411.231C122.149 400.38 118.553 388.705 114.902 376.649L133.78 366.523Z" fill="#0A1244"/>
<path d="M170.643 441.422C170.626 441.422 170.609 441.422 170.592 441.419C170.394 441.391 170.259 441.208 170.286 441.011C173.355 419.699 170.626 397.957 162.395 378.136C158.59 368.976 153.584 360.195 148.742 351.704C146.632 348.003 144.45 344.177 142.395 340.366C126.255 310.446 115.888 278.175 111.583 244.45C111.558 244.254 111.697 244.072 111.895 244.048C112.089 244.026 112.273 244.162 112.298 244.36C116.591 277.995 126.931 310.182 143.029 340.025C145.081 343.827 147.259 347.649 149.367 351.347C154.219 359.857 159.237 368.657 163.058 377.861C171.34 397.8 174.086 419.673 170.997 441.114C170.971 441.294 170.817 441.424 170.64 441.424L170.643 441.422Z" fill="#0A1244"/>
<path d="M13.2021 449.579C95.0629 318.183 51.5329 375.347 64.8469 240.142C86.993 241.355 114.589 238.83 136.735 240.142C145.838 335.696 159.274 354.949 62.8939 475.901L13.2021 449.581V449.579Z" fill="white"/>
<path d="M62.7253 476.218L13.0336 449.897C12.8522 449.802 12.7839 449.568 12.8969 449.389C66.6973 363.032 66.2685 358.182 63.4851 326.63C62.0704 310.602 59.9325 286.379 64.4887 240.105C64.5075 239.913 64.6889 239.759 64.8668 239.781C86.9328 240.989 114.673 238.475 136.758 239.781C136.936 239.792 137.079 239.93 137.096 240.107C137.952 249.096 138.833 257.283 139.685 265.198C143.757 303.038 146.446 328.037 137.222 357.705C127.988 387.403 106.536 421.711 63.1765 476.125C63.0646 476.265 62.8726 476.298 62.7265 476.218H62.7253ZM13.7121 449.44L62.7984 475.441C149.821 366.187 147.086 340.727 138.966 265.274C138.124 257.445 137.254 249.353 136.405 240.481C114.522 239.225 87.0883 241.678 65.1719 240.517C60.6663 286.499 62.7937 310.604 64.2013 326.566C67.0012 358.286 67.4311 363.2 13.7121 449.44Z" fill="#0A1244"/>
<path d="M171.155 187.878C167.778 222.719 154.617 257.3 154.617 257.3C149.673 254.591 144.112 252.56 138.169 251.071C99.3989 241.341 50.0322 252.781 50.0322 252.781C72.9699 106.379 140.084 118.127 143.533 119.231C169.748 127.688 174.078 157.877 171.155 187.878Z" fill="#EE7255"/>
<path d="M234.889 177.224C234.889 177.224 236.269 168.136 238.894 168.487C241.518 168.838 239.497 177.157 239.497 177.157" fill="white"/>
<path d="M234.889 177.584C234.669 177.584 234.499 177.388 234.532 177.17C234.68 176.204 236.068 167.742 238.943 168.13C239.382 168.189 239.742 168.419 240.013 168.815C241.387 170.824 239.912 176.981 239.848 177.242C239.802 177.435 239.605 177.554 239.414 177.507C239.219 177.46 239.102 177.264 239.149 177.072C239.614 175.157 240.717 168.837 238.747 168.837C237.133 168.837 235.749 173.968 235.247 177.277C235.219 177.455 235.066 177.583 234.891 177.583L234.889 177.584Z" fill="#0A1244"/>
<path d="M235.654 177.318C235.654 177.318 240.364 173.224 241.994 171.848C245.182 169.158 252.744 162.737 254.197 164.31C256.001 166.261 245.806 175.11 245.806 175.11C245.806 175.11 249.488 173.938 248.794 177.448C250.303 175.979 252.386 178.854 250.366 180.631C250.366 180.631 253.615 181.157 250.479 184.493C247.935 187.198 245.323 188.522 243.022 189.272C241.162 189.877 238.791 190.051 236.95 194.205L235.653 177.32L235.654 177.318Z" fill="white"/>
<path d="M236.592 194.232L235.296 177.345C235.288 177.231 235.334 177.12 235.42 177.045C238.102 174.692 241.785 171.555 241.895 171.459C248.438 165.936 253.077 162.567 254.463 164.063C254.688 164.307 254.79 164.625 254.769 165.008C254.637 167.394 249.246 172.504 246.964 174.563C248.358 174.511 249.287 175.248 249.24 176.753C250.884 176.223 252.405 178.648 251.021 180.456C251.427 180.629 251.923 180.952 252.12 181.532C252.41 182.38 251.945 183.459 250.74 184.739C248.555 187.063 246.066 188.658 243.134 189.612C240.754 190.389 238.94 190.599 237.279 194.349C237.125 194.695 236.617 194.597 236.59 194.231L236.592 194.232ZM236.029 177.47L237.212 192.885C238.925 189.886 240.805 189.616 242.912 188.928C245.726 188.01 248.116 186.479 250.217 184.246C251.471 182.911 251.574 182.16 251.439 181.763C251.231 181.15 250.318 180.988 250.308 180.985C250.009 180.937 249.9 180.561 250.128 180.359C251.357 179.277 250.796 177.701 249.921 177.436C249.619 177.343 249.323 177.434 249.047 177.705C248.794 177.95 248.374 177.724 248.441 177.377C248.61 176.523 248.513 175.927 248.156 175.607C247.573 175.087 246.344 175.322 245.916 175.454C245.757 175.506 245.577 175.436 245.493 175.286C245.411 175.138 245.442 174.951 245.571 174.839C247.889 172.826 253.932 167.131 254.051 164.969C254.061 164.785 254.022 164.65 253.934 164.554C252.633 163.131 243.415 171.205 242.228 172.124C240.773 173.35 236.817 176.788 236.03 177.471L236.029 177.47Z" fill="#0A1244"/>
<path d="M113.244 166.03C139.749 216.497 190.987 233.895 241.389 201.083L234.643 168.054C194.199 182.782 161.972 181.724 147.551 138.797" fill="#EE7255"/>
<path d="M167.902 215.013C167.867 215.013 167.833 215.008 167.798 214.998C163.977 213.855 160.194 212.391 156.555 210.645C138.819 202.156 123.731 186.787 112.923 166.199C112.83 166.022 112.9 165.804 113.075 165.712C113.252 165.622 113.469 165.688 113.562 165.864C124.296 186.314 139.27 201.574 156.866 209.997C160.471 211.727 164.219 213.178 168.004 214.31C168.195 214.366 168.303 214.568 168.247 214.759C168.201 214.915 168.057 215.017 167.902 215.017V215.013Z" fill="#0A1244"/>
<path d="M245.806 175.11C245.806 175.11 244.905 175.759 243.503 177.158L245.806 175.11Z" fill="white"/>
<path d="M243.249 177.413C243.109 177.271 243.109 177.043 243.249 176.903C244.654 175.5 245.556 174.846 245.595 174.819C245.755 174.701 245.981 174.739 246.098 174.9C246.215 175.063 246.178 175.286 246.017 175.403C246.009 175.41 245.118 176.056 243.758 177.414C243.615 177.554 243.389 177.554 243.248 177.414L243.249 177.413Z" fill="#0A1244"/>
<path d="M249.025 177.34C249.025 177.34 248.124 177.989 246.723 179.388L249.025 177.34Z" fill="white"/>
<path d="M246.468 179.642C246.327 179.501 246.327 179.274 246.468 179.133C247.872 177.729 248.776 177.074 248.815 177.047C248.975 176.931 249.201 176.965 249.318 177.13C249.434 177.291 249.398 177.516 249.236 177.633C249.227 177.64 248.337 178.287 246.977 179.643C246.836 179.785 246.61 179.785 246.468 179.643V179.642Z" fill="#0A1244"/>
<path d="M250.567 180.486C250.567 180.486 249.666 181.135 248.265 182.534L250.567 180.486Z" fill="white"/>
<path d="M248.01 182.789C247.869 182.647 247.869 182.419 248.01 182.28C249.416 180.876 250.318 180.221 250.357 180.194C250.517 180.076 250.742 180.112 250.86 180.275C250.976 180.438 250.94 180.661 250.778 180.778C250.77 180.785 249.88 181.431 248.519 182.789C248.378 182.93 248.152 182.93 248.01 182.789Z" fill="#0A1244"/>
<path d="M189.139 217.815C177.758 217.746 166.826 215.17 156.71 210.32C156.81 210.043 156.91 209.766 157.019 209.493C160.425 200.913 170.139 196.727 178.719 200.132C185.974 203.012 190.102 210.413 189.139 217.814V217.815Z" fill="#0A1244"/>
<path d="M228.992 208.095L220.123 182.059C220.059 181.871 220.159 181.666 220.348 181.601C220.537 181.54 220.741 181.639 220.806 181.826L229.676 207.862C229.739 208.05 229.639 208.255 229.451 208.32C229.249 208.386 229.054 208.274 228.992 208.095Z" fill="#0A1244"/>
<path d="M227.681 183.962C225.971 183.283 225.132 181.34 225.811 179.629C226.487 177.924 228.426 177.065 230.145 177.752C231.871 178.435 232.692 180.382 232.011 182.092C231.329 183.811 229.377 184.638 227.68 183.963L227.681 183.962ZM226.481 179.896C225.95 181.235 226.607 182.759 227.947 183.293C229.283 183.819 230.811 183.168 231.343 181.826C231.878 180.478 231.229 178.957 229.88 178.422C228.544 177.891 227.018 178.545 226.481 179.897V179.896Z" fill="#0A1244"/>
<path d="M137.528 118.756L136.748 107.151C135.96 105.84 135.392 104.343 135.092 102.686C133.657 94.8638 138.617 86.5642 146.129 84.1365C153.676 81.6911 160.94 86.0589 162.375 93.8803C162.481 94.4115 162.534 94.9439 162.587 95.4657C163.596 97.5919 166.565 100.462 165.51 101.87C164.962 102.605 162.428 102.96 160.921 102.916C159.345 107.903 158.601 112.864 150.894 112.562L151.292 132.068" fill="white"/>
<path d="M151.293 132.43C151.098 132.43 150.936 132.273 150.933 132.077L150.535 112.57C150.53 112.342 150.742 112.172 150.91 112.203C157.725 112.456 158.652 108.885 160.58 102.807C160.63 102.653 160.774 102.553 160.935 102.555C162.529 102.613 164.819 102.195 165.225 101.653C165.781 100.91 164.669 99.3093 163.689 97.897C163.548 97.6956 162.266 95.8698 162.231 95.5023C162.178 94.9758 162.125 94.4563 162.024 93.951C161.346 90.2511 159.326 87.2356 156.336 85.4511C153.364 83.6771 149.782 83.3297 146.242 84.4781C138.891 86.854 134.05 94.9922 135.449 102.619C135.737 104.202 136.278 105.664 137.059 106.963C137.089 107.013 137.106 107.068 137.11 107.126L137.89 118.731C137.903 118.93 137.753 119.101 137.554 119.115C137.356 119.115 137.184 118.977 137.17 118.779L136.396 107.261C135.594 105.906 135.037 104.389 134.739 102.75C133.277 94.7802 138.337 86.2756 146.02 83.7926C149.758 82.5817 153.553 82.9527 156.705 84.8327C159.876 86.7244 162.016 89.9142 162.732 93.8155C162.837 94.3361 162.891 94.8591 162.942 95.3668C164.003 97.5377 167.048 100.422 165.802 102.086C165.123 102.995 162.532 103.274 161.189 103.279C159.353 109.158 158.308 113.075 151.266 112.933L151.657 132.06C151.661 132.259 151.503 132.424 151.304 132.429H151.296L151.293 132.43Z" fill="#0A1244"/>
<path d="M160.943 89.7788C160.943 89.7788 156.469 94.0723 146.709 90.6846C135.964 86.9553 152.842 94.706 142.007 100.771C142.007 100.771 137.809 104.487 136.909 108.481C136.909 108.481 120.553 86.6891 136.206 82.9563C136.206 82.9563 128.667 78.5049 144.606 75.4176C160.546 72.3303 170.821 82.9598 160.945 89.7788H160.943Z" fill="#0A1244"/>
<path d="M144.197 99.983C143.933 97.7191 141.863 96.0829 139.597 96.3586C137.321 96.6212 135.684 98.6932 135.961 100.957C136.224 103.234 138.295 104.87 140.573 104.595" fill="white"/>
<path d="M135.605 100.998C135.303 98.5401 137.076 96.2879 139.557 96.0005C142.044 95.699 144.272 97.5012 144.556 99.9407C144.579 100.139 144.437 100.316 144.239 100.34C144.048 100.364 143.862 100.221 143.84 100.023C143.602 97.9818 141.739 96.4658 139.641 96.7155C137.545 96.9582 136.07 98.8581 136.32 100.912C136.558 102.984 138.436 104.486 140.53 104.237C140.729 104.205 140.907 104.354 140.931 104.551C140.955 104.749 140.815 104.928 140.617 104.953C138.15 105.251 135.891 103.486 135.605 100.998Z" fill="#0A1244"/>
<path d="M158.397 94.4045C158.583 94.9793 159.202 95.2974 159.771 95.1136C160.346 94.9275 160.664 94.3067 160.478 93.7331C160.292 93.1583 159.674 92.8473 159.099 93.0334C158.531 93.2171 158.211 93.8308 158.397 94.4057V94.4045Z" fill="#0A1244"/>
<path d="M155.422 92.263C155.26 92.1476 155.222 91.9226 155.336 91.7601C155.914 90.9473 156.772 90.4078 157.756 90.2405C158.738 90.0744 159.728 90.3006 160.541 90.8766C160.703 90.992 160.741 91.217 160.627 91.3796C160.511 91.5421 160.284 91.5787 160.124 91.4656C159.467 91.0003 158.669 90.8189 157.876 90.952C157.082 91.0875 156.388 91.5221 155.924 92.1782C155.809 92.3408 155.585 92.3796 155.421 92.2642L155.422 92.263Z" fill="#0A1244"/>
<path d="M150.943 112.535C150.943 112.535 148.557 112.481 145.866 110.632C147.257 112.815 148.964 114.43 150.927 115.587L150.942 112.691V112.535H150.943Z" fill="#0A1244"/>
<path d="M150.742 115.897C148.67 114.675 146.927 112.97 145.562 110.825C145.352 110.496 145.746 110.111 146.069 110.334C148.628 112.092 150.927 112.174 150.951 112.174C151.147 112.179 151.304 112.341 151.303 112.536L151.286 115.588C151.284 115.865 150.987 116.038 150.742 115.897ZM147.139 111.801C148.13 113.049 149.277 114.099 150.569 114.942L150.58 112.868C149.981 112.803 148.688 112.574 147.139 111.801Z" fill="#0A1244"/>
<path d="M155.072 104.625C155.072 104.625 156.33 107.286 159.658 106.892L155.072 104.625Z" fill="white"/>
<path d="M159.004 107.293C155.971 107.293 154.758 104.807 154.746 104.779C154.661 104.599 154.737 104.386 154.916 104.3C155.094 104.212 155.31 104.291 155.397 104.47C155.445 104.569 156.609 106.883 159.615 106.535C159.825 106.504 159.992 106.653 160.016 106.85C160.039 107.048 159.898 107.227 159.7 107.251C159.457 107.28 159.226 107.293 159.005 107.293H159.004Z" fill="#0A1244"/>
<path d="M64.998 453.269L25.626 429.51L26.1372 428.665L65.5092 452.423L64.998 453.269Z" fill="#0A1244"/>
<path d="M185.075 454.15L140.722 455.885L140.76 456.873L185.114 455.138L185.075 454.15Z" fill="#0A1244"/>
<path d="M50.3851 441.407L49.6807 440.714C88.7876 400.962 100.835 354.569 104.056 322.653C107.545 288.065 101.715 262.573 101.655 262.319L102.618 262.093C102.677 262.349 108.544 288.002 105.038 322.75C101.801 354.826 89.6923 401.45 50.3839 441.407H50.3851Z" fill="#0A1244"/>
<path d="M86.9961 43.7656C84.0513 40.5758 84.2504 35.5873 87.4379 32.6448C90.6289 29.7012 95.6185 29.8991 98.5621 33.0889C98.6929 33.2291 98.6835 33.4482 98.5433 33.5766C98.402 33.7061 98.184 33.6979 98.0556 33.5577C95.3123 30.5858 90.7643 30.514 87.9079 33.1513C84.9996 35.8358 84.8193 40.3861 87.505 43.2968C87.6358 43.437 87.6263 43.656 87.4862 43.7844C87.3436 43.9164 87.1222 43.9022 86.9985 43.7656H86.9961Z" fill="#0A1244"/>
<path d="M405.055 210.798C404.864 210.79 404.716 210.63 404.723 210.439C404.731 210.248 404.908 210.094 405.082 210.107C409.074 210.262 412.386 207.166 412.545 203.22C412.703 199.256 409.622 195.918 405.656 195.761C405.465 195.753 405.317 195.593 405.324 195.402C405.332 195.211 405.517 195.084 405.683 195.07C410.029 195.243 413.409 198.898 413.236 203.247C413.061 207.627 409.349 210.989 405.055 210.797V210.798Z" fill="#0A1244"/>
<path d="M358.327 44.9694V60.8867C358.327 62.1046 359.314 63.0929 360.533 63.0929C361.751 63.0929 362.74 62.1058 362.74 60.8867V44.9694C362.74 43.7515 361.753 42.7632 360.533 42.7632C359.315 42.7632 358.327 43.7503 358.327 44.9694Z" fill="#0A1244"/>
<path d="M362.738 34.069V30.1182C362.738 28.9003 361.751 27.912 360.531 27.912C359.313 27.912 358.325 28.8991 358.325 30.1182V34.069C358.325 35.287 359.312 36.2752 360.531 36.2752C361.749 36.2752 362.738 35.2881 362.738 34.069Z" fill="#0A1244"/>
<path d="M331.748 449.77C326.738 448.019 322.096 442.638 323.328 436.998C324.477 431.741 329.717 428.816 335.21 426.439C340.181 424.286 345.587 421.561 346.804 416.453C348.377 409.854 342.652 404.739 337.661 400.718L337.418 400.523C329.394 394.053 321.487 387.219 313.914 380.208C309.379 376.01 305.043 371.813 301.826 366.647C290.038 347.714 303.976 331.158 320.863 330.885C331.409 330.682 341.406 336.511 348.519 344.63C355.333 352.408 359.8 362.34 361.099 372.6C362.142 380.851 361.3 389.76 365.057 397.114C367.683 402.247 372.314 406.154 374.926 411.388C379.155 419.864 377.283 429.821 376.55 438.746C376.535 438.936 376.384 439.085 376.178 439.063C375.987 439.048 375.846 438.88 375.861 438.691C376.574 429.949 378.458 420.018 374.306 411.696C371.751 406.575 367.091 402.61 364.442 397.428C360.595 389.901 361.459 380.937 360.413 372.687C359.132 362.563 354.722 352.761 347.999 345.086C341.019 337.119 331.334 331.439 320.875 331.576C304.958 331.836 290.689 347.445 302.413 366.283C305.584 371.376 309.885 375.536 314.383 379.702C321.944 386.702 329.841 393.526 337.852 399.985L338.095 400.181C343.293 404.367 349.154 409.578 347.478 416.613C346.187 422.033 340.611 424.854 335.484 427.073C330.161 429.377 325.087 432.192 324.003 437.145C322.851 442.415 327.245 447.461 331.975 449.118C337.102 450.909 342.838 449.917 347.775 448.71C353.988 447.191 360.12 445.14 366.002 442.613C366.177 442.537 366.381 442.619 366.455 442.795C366.531 442.969 366.449 443.173 366.274 443.248C360.358 445.79 354.19 447.855 347.938 449.381C342.644 450.676 336.92 451.582 331.747 449.77H331.748Z" fill="#0A1244"/>
<path d="M368.357 478.337C368.167 478.317 368.03 478.146 368.051 477.957C371.567 445.771 354.302 399.002 343.697 373.987C343.623 373.812 343.705 373.608 343.881 373.534C344.056 373.461 344.26 373.542 344.334 373.718C354.965 398.793 372.272 445.69 368.739 478.032C368.716 478.236 368.523 478.363 368.358 478.338L368.357 478.337Z" fill="#0A1244"/>
<path d="M384.198 466.307C387.175 466.943 389.689 469.285 392.732 469.17C395.773 469.056 398.933 466.91 399.187 463.877C399.441 460.846 396.928 458.372 394.615 456.396C392.303 454.419 389.771 451.982 389.969 448.947C390.09 447.08 391.288 445.417 392.777 444.285C394.266 443.151 396.037 442.463 397.775 441.77C403.182 439.612 408.516 437.269 413.764 434.746C416.827 433.273 419.898 431.715 422.465 429.486C425.032 427.258 427.081 424.262 427.537 420.893C428.331 415.025 423.851 409.273 418.221 407.438C412.591 405.603 406.279 407.12 401.239 410.228C396.303 413.271 392.308 417.814 389.918 423.096C387.977 427.388 386.975 432.297 383.691 435.675C381.419 438.012 378.273 439.355 376.023 441.713C372.673 445.226 370.036 451.678 370.667 456.06C370.886 457.579 369.898 463.25 384.198 466.308V466.307Z" fill="#BFC6FD"/>
<path d="M368.296 478.808C368.109 478.773 367.986 478.592 368.022 478.403C371.486 460.396 388.575 438.027 398.453 426.295C398.578 426.149 398.796 426.13 398.94 426.254C399.086 426.377 399.105 426.595 398.981 426.741C389.147 438.42 372.134 460.681 368.7 478.534C368.666 478.712 368.495 478.842 368.295 478.808H368.296Z" fill="#0A1244"/>
<path d="M227.106 312.175C224.157 308.982 224.349 304.005 227.548 301.054C230.737 298.111 235.728 298.308 238.672 301.498C238.803 301.638 238.793 301.857 238.653 301.986C238.512 302.115 238.294 302.107 238.165 301.967C235.473 299.051 230.936 298.868 228.017 301.561C225.104 304.251 224.922 308.788 227.615 311.706C227.745 311.846 227.736 312.065 227.596 312.194C227.453 312.326 227.232 312.312 227.108 312.175H227.106Z" fill="#0A1244"/>
<path d="M433.328 272.513L420.498 289.185L437.17 302.016L450.001 285.343L433.328 272.513Z" fill="#76C4FF"/>
<path d="M431.76 265.362L410.725 265.468L410.831 286.503L431.866 286.397L431.76 265.362Z" fill="#FFA186"/>
<path d="M296.744 50.9674C296.744 64.6337 285.662 75.7155 271.996 75.7155C258.33 75.7155 247.248 64.6337 247.248 50.9674C247.248 37.3012 258.329 26.2146 271.996 26.2146C285.664 26.2146 296.744 37.2965 296.744 50.9674Z" fill="white"/>
<path d="M271.998 76.076C258.153 76.076 246.89 64.8127 246.89 50.9686C246.89 37.1245 258.154 25.8553 271.998 25.8553C285.842 25.8553 297.107 37.121 297.107 50.9686C297.107 64.8163 285.842 76.076 271.998 76.076ZM271.998 26.5762C258.551 26.5762 247.611 37.5179 247.611 50.9686C247.611 64.4193 258.55 75.3551 271.998 75.3551C285.447 75.3551 296.386 64.4158 296.386 50.9686C296.386 37.5215 285.447 26.5762 271.998 26.5762Z" fill="#0A1244"/>
<path d="M278.254 41.8411C278.254 45.2959 275.453 48.0982 271.997 48.0982C268.541 48.0982 265.74 45.2971 265.74 41.8411C265.74 38.385 268.541 35.5828 271.997 35.5828C275.453 35.5828 278.254 38.3839 278.254 41.8411Z" fill="white"/>
<path d="M271.998 48.4586C268.35 48.4586 265.381 45.4902 265.381 41.841C265.381 38.1918 268.349 35.2223 271.998 35.2223C275.648 35.2223 278.616 38.1918 278.616 41.841C278.616 45.4902 275.648 48.4586 271.998 48.4586ZM271.998 35.9444C268.747 35.9444 266.103 38.59 266.103 41.8422C266.103 45.0944 268.747 47.7377 271.998 47.7377C275.249 47.7377 277.894 45.0933 277.894 41.8422C277.894 38.5911 275.249 35.9444 271.998 35.9444Z" fill="#0A1244"/>
<path d="M258.887 64.4195C258.887 57.1777 264.756 51.3081 271.996 51.3081C279.235 51.3081 285.105 57.1777 285.105 64.4195" fill="white"/>
<path d="M285.105 64.7811C284.906 64.7811 284.745 64.6186 284.745 64.4207C284.745 57.3897 279.026 51.6697 271.996 51.6697C264.966 51.6697 259.247 57.3897 259.247 64.4207C259.247 64.6198 259.085 64.7811 258.887 64.7811C258.689 64.7811 258.526 64.6186 258.526 64.4207C258.526 56.9927 264.569 50.9476 271.996 50.9476C279.423 50.9476 285.465 56.9915 285.465 64.4207C285.465 64.6198 285.303 64.7811 285.105 64.7811Z" fill="#0A1244"/>
<path d="M318.752 88.4888H228.451C226.984 88.4888 225.795 89.678 225.795 91.145V107.199C225.795 108.666 226.984 109.855 228.451 109.855H318.752C320.219 109.855 321.408 108.666 321.408 107.199V91.145C321.408 89.678 320.219 88.4888 318.752 88.4888Z" fill="white"/>
<path d="M318.751 110.217H228.45C226.787 110.217 225.434 108.863 225.434 107.2V91.1463C225.434 89.4831 226.787 88.1296 228.45 88.1296H318.751C320.414 88.1296 321.767 89.4831 321.767 91.1463V107.2C321.767 108.863 320.414 110.217 318.751 110.217ZM228.45 88.8505C227.185 88.8505 226.154 89.88 226.154 91.1463V107.2C226.154 108.465 227.184 109.496 228.45 109.496H318.751C320.016 109.496 321.047 108.466 321.047 107.2V91.1463C321.047 89.8812 320.017 88.8505 318.751 88.8505H228.45Z" fill="#0A1244"/>
<path d="M318.752 120.336H228.451C226.984 120.336 225.795 121.526 225.795 122.993V139.047C225.795 140.514 226.984 141.703 228.451 141.703H318.752C320.219 141.703 321.408 140.514 321.408 139.047V122.993C321.408 121.526 320.219 120.336 318.752 120.336Z" fill="white"/>
<path d="M318.751 142.063H228.45C226.787 142.063 225.434 140.71 225.434 139.046V122.993C225.434 121.329 226.787 119.976 228.45 119.976H318.751C320.414 119.976 321.767 121.329 321.767 122.993V139.046C321.767 140.71 320.414 142.063 318.751 142.063ZM228.45 120.698C227.185 120.698 226.154 121.728 226.154 122.994V139.048C226.154 140.313 227.184 141.343 228.45 141.343H318.751C320.016 141.343 321.047 140.314 321.047 139.048V122.994C321.047 121.729 320.017 120.698 318.751 120.698H228.45Z" fill="#0A1244"/>
<path d="M240.556 131.019C240.556 132.928 239.008 134.469 237.106 134.469C235.203 134.469 233.648 132.927 233.648 131.019C233.648 129.111 235.196 127.569 237.106 127.569C239.015 127.569 240.556 129.111 240.556 131.019Z" fill="white"/>
<path d="M237.105 134.831C235 134.831 233.287 133.12 233.287 131.019C233.287 128.918 235 127.208 237.105 127.208C239.21 127.208 240.917 128.919 240.917 131.019C240.917 133.119 239.206 134.831 237.105 134.831ZM237.105 127.931C235.398 127.931 234.009 129.317 234.009 131.02C234.009 132.724 235.398 134.11 237.105 134.11C238.812 134.11 240.194 132.724 240.194 131.02C240.194 129.317 238.808 127.931 237.105 127.931Z" fill="#0A1244"/>
<path d="M252.66 131.019C252.66 132.928 251.112 134.469 249.21 134.469C247.308 134.469 245.753 132.927 245.753 131.019C245.753 129.111 247.301 127.569 249.21 127.569C251.12 127.569 252.66 129.111 252.66 131.019Z" fill="white"/>
<path d="M249.21 134.831C247.105 134.831 245.392 133.12 245.392 131.019C245.392 128.918 247.104 127.208 249.21 127.208C251.317 127.208 253.021 128.919 253.021 131.019C253.021 133.119 251.311 134.831 249.21 134.831ZM249.21 127.93C247.502 127.93 246.114 129.317 246.114 131.02C246.114 132.723 247.502 134.11 249.21 134.11C250.918 134.11 252.3 132.723 252.3 131.02C252.3 129.317 250.914 127.93 249.21 127.93Z" fill="#0A1244"/>
<path d="M264.764 131.019C264.764 132.928 263.216 134.469 261.314 134.469C259.411 134.469 257.856 132.927 257.856 131.019C257.856 129.111 259.404 127.569 261.314 127.569C263.223 127.569 264.764 129.111 264.764 131.019Z" fill="white"/>
<path d="M261.314 134.831C259.209 134.831 257.496 133.12 257.496 131.019C257.496 128.918 259.209 127.208 261.314 127.208C263.419 127.208 265.125 128.919 265.125 131.019C265.125 133.119 263.415 134.831 261.314 134.831ZM261.314 127.93C259.607 127.93 258.218 129.317 258.218 131.02C258.218 132.723 259.607 134.11 261.314 134.11C263.021 134.11 264.403 132.723 264.403 131.02C264.403 129.317 263.017 127.93 261.314 127.93Z" fill="#0A1244"/>
<path d="M276.868 131.019C276.868 132.928 275.32 134.469 273.418 134.469C271.516 134.469 269.961 132.927 269.961 131.019C269.961 129.111 271.509 127.569 273.418 127.569C275.328 127.569 276.868 129.111 276.868 131.019Z" fill="white"/>
<path d="M273.418 134.831C271.313 134.831 269.6 133.12 269.6 131.019C269.6 128.918 271.312 127.208 273.418 127.208C275.525 127.208 277.229 128.919 277.229 131.019C277.229 133.119 275.519 134.831 273.418 134.831ZM273.418 127.93C271.71 127.93 270.322 129.317 270.322 131.02C270.322 132.723 271.71 134.11 273.418 134.11C275.126 134.11 276.508 132.723 276.508 131.02C276.508 129.317 275.122 127.93 273.418 127.93Z" fill="#0A1244"/>
<path d="M273.977 95.7084H233.157C232.645 95.7084 232.229 96.1234 232.229 96.6354V101.705C232.229 102.217 232.645 102.632 233.157 102.632H273.977C274.489 102.632 274.904 102.217 274.904 101.705V96.6354C274.904 96.1234 274.489 95.7084 273.977 95.7084Z" fill="#FFC176"/>
</svg>
